<svg xmlns="http://www.w3.org/2000/svg" width="53" height="37" viewBox="0 0 53 37">
  <metadata><?xpacket begin="﻿" id="W5M0MpCehiHzreSzNTczkc9d"?>
<x:xmpmeta xmlns:x="adobe:ns:meta/" x:xmptk="Adobe XMP Core 5.6-c138 79.159824, 2016/09/14-01:09:01        ">
   <rdf:RDF xmlns:rdf="http://www.w3.org/1999/02/22-rdf-syntax-ns#">
      <rdf:Description rdf:about=""/>
   </rdf:RDF>
</x:xmpmeta>
                                                                                                    
                                                                                                    
                                                                                                    
                                                                                                    
                                                                                                    
                                                                                                    
                                                                                                    
                                                                                                    
                                                                                                    
                                                                                                    
                                                                                                    
                                                                                                    
                                                                                                    
                                                                                                    
                                                                                                    
                                                                                                    
                                                                                                    
                                                                                                    
                                                                                                    
                                                                                                    
                           
<?xpacket end="w"?></metadata>
<defs>
    <style>
      .cls-1 {
        fill: #4285f4;
        fill-rule: evenodd;
      }
    </style>
  </defs>
  <path id="bus" class="cls-1" d="M581.33,749.054a4.836,4.836,0,0,0-3.453,1.458,5,5,0,0,0-1.446,3.515,4.948,4.948,0,0,0,1.446,3.514A4.909,4.909,0,1,0,581.33,749.054Zm0,7.736a2.763,2.763,0,0,1,0-5.526A2.765,2.765,0,0,1,581.33,756.79Zm1.252-24.3a1.034,1.034,0,0,0-.723-0.288h-5.536a1.1,1.1,0,0,0-1.079,1.1v9.063a1.1,1.1,0,0,0,1.079,1.1h8.784a1.1,1.1,0,0,0,1.08-1.1V736.3a1.12,1.12,0,0,0-.356-0.818Zm1.446,8.774H577.4V734.4h4.036l2.59,2.387v4.475Zm-29.052,7.792a4.84,4.84,0,0,0-3.454,1.458,4.994,4.994,0,0,0,0,7.029A4.909,4.909,0,1,0,554.976,749.054Zm0,7.736a2.763,2.763,0,0,1,0-5.526A2.765,2.765,0,0,1,554.976,756.79Zm-7.2-6.377h-2.17v-2.94a1.079,1.079,0,1,0-2.158,0v4.045a1.1,1.1,0,0,0,1.079,1.105h3.249A1.105,1.105,0,0,0,547.778,750.413Zm5.471-6.023a1.1,1.1,0,0,0-1.079-1.105H539.079a1.105,1.105,0,0,0,0,2.21H552.17A1.088,1.088,0,0,0,553.249,744.39ZM541.27,740.4l13.091,0.078a1.1,1.1,0,0,0,1.09-1.094,1.082,1.082,0,0,0-1.069-1.116l-13.09-.078h-0.011A1.105,1.105,0,0,0,541.27,740.4Zm2.2-5.017h13.09a1.105,1.105,0,0,0,0-2.21h-13.09A1.105,1.105,0,0,0,543.472,735.383Zm47.129-1.492h0l-7.727-6.553a1.049,1.049,0,0,0-.691-0.254H573.1v-3.979A1.1,1.1,0,0,0,572.017,722H544.529a1.1,1.1,0,0,0-1.079,1.105v8.09a1.079,1.079,0,1,0,2.158,0V724.21h25.34v26.2H562.1a1.105,1.105,0,0,0,0,2.21h13.177a1.105,1.105,0,0,0,0-2.21h-2.169V729.294h8.7l7.037,5.968-0.076,15.129h-1.122a1.105,1.105,0,0,0,0,2.21h2.19a1.086,1.086,0,0,0,1.08-1.094L591,734.753A1.181,1.181,0,0,0,590.6,733.891Z" transform="translate(-538 -722)"/>
</svg>
