<svg xmlns="http://www.w3.org/2000/svg" width="20" height="20" viewBox="0 0 20 20">
  <metadata><?xpacket begin="﻿" id="W5M0MpCehiHzreSzNTczkc9d"?>
<x:xmpmeta xmlns:x="adobe:ns:meta/" x:xmptk="Adobe XMP Core 5.6-c138 79.159824, 2016/09/14-01:09:01        ">
   <rdf:RDF xmlns:rdf="http://www.w3.org/1999/02/22-rdf-syntax-ns#">
      <rdf:Description rdf:about=""/>
   </rdf:RDF>
</x:xmpmeta>
                                                                                                    
                                                                                                    
                                                                                                    
                                                                                                    
                                                                                                    
                                                                                                    
                                                                                                    
                                                                                                    
                                                                                                    
                                                                                                    
                                                                                                    
                                                                                                    
                                                                                                    
                                                                                                    
                                                                                                    
                                                                                                    
                                                                                                    
                                                                                                    
                                                                                                    
                                                                                                    
                           
<?xpacket end="w"?></metadata>
<defs>
    <style>
      .cls-1 {
        fill: #0645ae;
        fill-rule: evenodd;
      }
    </style>
  </defs>
  <path id="phone_call" data-name="phone call" class="cls-1" d="M505.072,63a8.584,8.584,0,0,1-2.942-.626,22.072,22.072,0,0,1-7.424-5.083,22.076,22.076,0,0,1-5.085-7.424c-0.833-2.2-.835-4.012-0.007-4.84,0.119-.12.241-0.248,0.366-0.379,0.755-.794,1.629-1.7,2.741-1.647a3.283,3.283,0,0,1,2.31,1.478c2.285,2.843,1.256,3.856.063,5.031l-0.21.208c-0.195.2-.565,1.1,2.866,4.528a19.085,19.085,0,0,0,2.837,2.435c0.48,0.312,1.337.785,1.691,0.432l0.212-.214c1.174-1.191,2.188-2.217,5.029.067A3.279,3.279,0,0,1,509,59.272c0.046,1.131-.855,1.986-1.65,2.741-0.131.125-.259,0.246-0.378,0.365A2.627,2.627,0,0,1,505.072,63ZM492.641,43.669a3.577,3.577,0,0,0-2.173,1.44c-0.13.135-.255,0.267-0.379,0.39-0.616.616-.553,2.236,0.161,4.127a21.408,21.408,0,0,0,4.931,7.187,21.389,21.389,0,0,0,7.186,4.929c1.891,0.715,3.51.776,4.127,0.159,0.123-.123.255-0.248,0.39-0.377,0.691-.656,1.474-1.4,1.44-2.226a2.715,2.715,0,0,0-1.228-1.813c-2.368-1.9-3.029-1.231-4.127-.118l-0.216.217c-0.524.525-1.377,0.408-2.533-.343a19.665,19.665,0,0,1-2.946-2.523c-2.848-2.846-3.759-4.587-2.867-5.48l0.214-.212c1.116-1.1,1.789-1.761-.115-4.129a2.722,2.722,0,0,0-1.814-1.227h-0.051Zm9.508,6.511a0.336,0.336,0,0,1-.238-0.574l6.513-6.512a0.336,0.336,0,0,1,.475.475l-6.512,6.512A0.333,0.333,0,0,1,502.149,50.179Zm4.98,0h-4.98a0.337,0.337,0,0,1-.336-0.336V44.864a0.337,0.337,0,0,1,.673,0v4.642h4.643A0.336,0.336,0,1,1,507.129,50.179Z" transform="translate(-489 -43)"/>
</svg>
