<svg xmlns="http://www.w3.org/2000/svg" width="72" height="49" viewBox="0 0 72 49">
  <metadata><?xpacket begin="﻿" id="W5M0MpCehiHzreSzNTczkc9d"?>
<x:xmpmeta xmlns:x="adobe:ns:meta/" x:xmptk="Adobe XMP Core 5.6-c138 79.159824, 2016/09/14-01:09:01        ">
   <rdf:RDF xmlns:rdf="http://www.w3.org/1999/02/22-rdf-syntax-ns#">
      <rdf:Description rdf:about=""/>
   </rdf:RDF>
</x:xmpmeta>
                                                                                                    
                                                                                                    
                                                                                                    
                                                                                                    
                                                                                                    
                                                                                                    
                                                                                                    
                                                                                                    
                                                                                                    
                                                                                                    
                                                                                                    
                                                                                                    
                                                                                                    
                                                                                                    
                                                                                                    
                                                                                                    
                                                                                                    
                                                                                                    
                                                                                                    
                                                                                                    
                           
<?xpacket end="w"?></metadata>
<defs>
    <style>
      .cls-1 {
        fill: #4285f4;
        fill-rule: evenodd;
      }
    </style>
  </defs>
  <path id="car" class="cls-1" d="M660.864,2006.83a6.67,6.67,0,0,0-4.692,1.93,6.5,6.5,0,0,0,0,9.31,6.7,6.7,0,0,0,4.692,1.93A6.585,6.585,0,0,0,660.864,2006.83Zm0,10.24a3.656,3.656,0,1,1,0-7.31A3.655,3.655,0,0,1,660.864,2017.07Zm1.7-32.18a1.416,1.416,0,0,0-.982-0.38h-7.521a1.469,1.469,0,0,0-1.466,1.46v12a1.472,1.472,0,0,0,1.466,1.47H666a1.472,1.472,0,0,0,1.466-1.47v-8.03a1.443,1.443,0,0,0-.484-1.08Zm1.965,11.62h-9v-9.09h5.483l3.519,3.16v5.93Zm-39.467,10.32a6.67,6.67,0,0,0-4.692,1.93,6.5,6.5,0,0,0,0,9.31,6.7,6.7,0,0,0,4.692,1.93A6.585,6.585,0,0,0,625.062,2006.83Zm0,10.24a3.656,3.656,0,1,1,0-7.31A3.655,3.655,0,0,1,625.062,2017.07Zm-9.779-8.44h-2.947v-3.9a1.466,1.466,0,0,0-2.932,0v5.36a1.471,1.471,0,0,0,1.466,1.47h4.413A1.465,1.465,0,1,0,615.283,2008.63Zm7.433-7.98a1.469,1.469,0,0,0-1.466-1.46H603.466a1.465,1.465,0,1,0,0,2.93H621.25A1.465,1.465,0,0,0,622.716,2000.65Zm-16.274-5.28,17.784,0.1a1.477,1.477,0,0,0,1.481-1.45,1.452,1.452,0,0,0-1.452-1.48l-17.783-.1h-0.015A1.465,1.465,0,0,0,606.442,1995.37Zm2.991-6.65h17.784a1.46,1.46,0,1,0,0-2.92H609.433A1.46,1.46,0,1,0,609.433,1988.72Zm64.025-1.97h0l-10.5-8.68a1.445,1.445,0,0,0-.938-0.34H649.677v-5.27a1.469,1.469,0,0,0-1.466-1.46H610.87a1.469,1.469,0,0,0-1.466,1.46v10.72a1.466,1.466,0,0,0,2.932,0v-9.25H646.76v34.7H634.738a1.465,1.465,0,1,0,0,2.93h17.9a1.465,1.465,0,1,0,0-2.93h-2.947v-27.97h11.817l9.559,7.9-0.1,20.04H669.44a1.465,1.465,0,1,0,0,2.93h2.977a1.461,1.461,0,0,0,1.466-1.45L674,1987.89A1.545,1.545,0,0,0,673.458,1986.75Z" transform="translate(-602 -1971)"/>
</svg>
