<svg xmlns="http://www.w3.org/2000/svg" width="59" height="59" viewBox="0 0 59 59">
  <metadata><?xpacket begin="﻿" id="W5M0MpCehiHzreSzNTczkc9d"?>
<x:xmpmeta xmlns:x="adobe:ns:meta/" x:xmptk="Adobe XMP Core 5.6-c138 79.159824, 2016/09/14-01:09:01        ">
   <rdf:RDF xmlns:rdf="http://www.w3.org/1999/02/22-rdf-syntax-ns#">
      <rdf:Description rdf:about=""/>
   </rdf:RDF>
</x:xmpmeta>
                                                                                                    
                                                                                                    
                                                                                                    
                                                                                                    
                                                                                                    
                                                                                                    
                                                                                                    
                                                                                                    
                                                                                                    
                                                                                                    
                                                                                                    
                                                                                                    
                                                                                                    
                                                                                                    
                                                                                                    
                                                                                                    
                                                                                                    
                                                                                                    
                                                                                                    
                                                                                                    
                           
<?xpacket end="w"?></metadata>
<defs>
    <style>
      .cls-1 {
        fill: #4285f4;
        fill-rule: evenodd;
      }
    </style>
  </defs>
  <path id="clock2" class="cls-1" d="M937.5,1966a29.5,29.5,0,1,0,29.5,29.5A29.531,29.531,0,0,0,937.5,1966Zm0,57.03a27.53,27.53,0,1,1,27.533-27.53A27.563,27.563,0,0,1,937.5,2023.03Zm0.983-31.44v-9.98a0.983,0.983,0,0,0-1.966,0v9.98a3.924,3.924,0,0,0-2.811,2.81h-7.023a0.98,0.98,0,1,0,0,1.96h7.023A3.924,3.924,0,1,0,938.483,1991.59Zm-0.983,5.76a1.97,1.97,0,1,1,1.967-1.97A1.968,1.968,0,0,1,937.5,1997.35Zm0-21.64a0.982,0.982,0,0,0,.983-0.98v-0.98a0.983,0.983,0,1,0-1.966,0v0.98A0.982,0.982,0,0,0,937.5,1975.71Zm0,39.34a0.982,0.982,0,0,0-.983.98v0.98a0.983,0.983,0,1,0,1.966,0v-0.98A0.982,0.982,0,0,0,937.5,2015.05Zm21.633-20.65H958.15a0.98,0.98,0,1,0,0,1.96h0.983A0.98,0.98,0,1,0,959.133,1994.4Zm-42.283,0h-0.983a0.98,0.98,0,1,0,0,1.96h0.983A0.98,0.98,0,1,0,916.85,1994.4Zm35.251-15.01-0.7.69a0.983,0.983,0,0,0,0,1.39,0.979,0.979,0,0,0,1.391,0l0.695-.69A0.983,0.983,0,0,0,952.1,1979.39Zm-29.9,29.9-0.695.69a0.983,0.983,0,1,0,1.39,1.39l0.7-.69A0.983,0.983,0,0,0,922.2,2009.29Zm30.594,0a0.983,0.983,0,0,0-1.391,1.39l0.7,0.69a0.983,0.983,0,0,0,1.391-1.39Zm-29.9-29.9a0.972,0.972,0,0,0-1.39,0,0.983,0.983,0,0,0,0,1.39l0.695,0.69a0.979,0.979,0,0,0,1.391,0,0.983,0.983,0,0,0,0-1.39Z" transform="translate(-908 -1966)"/>
</svg>
