<svg xmlns="http://www.w3.org/2000/svg" width="59" height="60" viewBox="0 0 59 60">
  <metadata><?xpacket begin="﻿" id="W5M0MpCehiHzreSzNTczkc9d"?>
<x:xmpmeta xmlns:x="adobe:ns:meta/" x:xmptk="Adobe XMP Core 5.6-c138 79.159824, 2016/09/14-01:09:01        ">
   <rdf:RDF xmlns:rdf="http://www.w3.org/1999/02/22-rdf-syntax-ns#">
      <rdf:Description rdf:about=""/>
   </rdf:RDF>
</x:xmpmeta>
                                                                                                    
                                                                                                    
                                                                                                    
                                                                                                    
                                                                                                    
                                                                                                    
                                                                                                    
                                                                                                    
                                                                                                    
                                                                                                    
                                                                                                    
                                                                                                    
                                                                                                    
                                                                                                    
                                                                                                    
                                                                                                    
                                                                                                    
                                                                                                    
                                                                                                    
                                                                                                    
                           
<?xpacket end="w"?></metadata>
<defs>
    <style>
      .cls-1 {
        fill: #4285f4;
        fill-rule: evenodd;
      }
    </style>
  </defs>
  <path id="hand" class="cls-1" d="M344.052,2023.37a45.2,45.2,0,0,1-13.585-1.74,10.862,10.862,0,0,0-2.778-.56H317.6a0.892,0.892,0,0,1-.892-0.89v-20.85a0.892,0.892,0,0,1,.892-0.89c3.5,0,6.523-1.92,9-5.7,3.479-5.33,5.528-8.32,9.206-13.03a33.844,33.844,0,0,0,5.752-10.88l0.129-.62c0.214-1.09.435-2.2,2.25-2.2,3.558,0,5.479,4.07,5.479,7.91,0,2.37-.9,5.56-2.747,9.75-0.718,1.63-.606,2.77-0.29,3.24a0.758,0.758,0,0,0,.7.35h14.154a5.2,5.2,0,0,1,4.779,5.21,5.714,5.714,0,0,1-1.726,4.53,5.356,5.356,0,0,1,1.726,4.17,5.862,5.862,0,0,1-2.871,4.84,5.7,5.7,0,0,1,1.245,3.91c0,2.83-2.429,4.27-3.975,4.9a6.1,6.1,0,0,1,.426,4.18C360.3,2022.06,355.283,2023.37,344.052,2023.37Zm-25.562-4.08h9.2a12.379,12.379,0,0,1,3.259.63,43.319,43.319,0,0,0,13.1,1.68c12.633,0,14.83-1.81,15.017-2.89,0.357-2.08-.025-2.97-0.758-3.74a0.879,0.879,0,0,1-.2-0.86,0.9,0.9,0,0,1,.651-0.61c0.037-.01,3.834-0.93,3.834-3.57s-1.319-3.18-1.375-3.2a0.9,0.9,0,0,1-.581-0.82,0.883,0.883,0,0,1,.544-0.84c0.03-.01,3.04-1.26,3.04-3.9a3.445,3.445,0,0,0-1.913-3.38,0.886,0.886,0,0,1,.091-1.69c0.06-.01,1.822-0.57,1.822-3.63a3.449,3.449,0,0,0-3.1-3.44l-14.047.01a2.525,2.525,0,0,1-2.188-1.16c-0.77-1.17-.715-2.96.15-4.92,1.746-3.96,2.6-6.92,2.6-9.04,0-2.55-1.145-6.14-3.695-6.14a1.281,1.281,0,0,0-.355.03c-0.008.05-.083,0.43-0.144,0.74l-0.137.66a35.93,35.93,0,0,1-6.085,11.59c-3.638,4.66-5.667,7.62-9.118,12.9-2.621,4.01-5.846,6.18-9.6,6.48v19.11h0Zm-0.891,6.7h-9.712a0.884,0.884,0,0,1-.892-0.88v-30.42a0.892,0.892,0,0,1,.892-0.89H317.6a0.892,0.892,0,0,1,.891.89v30.42A0.882,0.882,0,0,1,317.6,2025.99Zm-8.821-1.77h7.929v-28.65h-7.929v28.65Z" transform="translate(-307 -1966)"/>
</svg>
