<svg xmlns="http://www.w3.org/2000/svg" width="42" height="42" viewBox="0 0 42 42">
  <metadata><?xpacket begin="﻿" id="W5M0MpCehiHzreSzNTczkc9d"?>
<x:xmpmeta xmlns:x="adobe:ns:meta/" x:xmptk="Adobe XMP Core 5.6-c138 79.159824, 2016/09/14-01:09:01        ">
   <rdf:RDF xmlns:rdf="http://www.w3.org/1999/02/22-rdf-syntax-ns#">
      <rdf:Description rdf:about=""/>
   </rdf:RDF>
</x:xmpmeta>
                                                                                                    
                                                                                                    
                                                                                                    
                                                                                                    
                                                                                                    
                                                                                                    
                                                                                                    
                                                                                                    
                                                                                                    
                                                                                                    
                                                                                                    
                                                                                                    
                                                                                                    
                                                                                                    
                                                                                                    
                                                                                                    
                                                                                                    
                                                                                                    
                                                                                                    
                                                                                                    
                           
<?xpacket end="w"?></metadata>
<defs>
    <style>
      .cls-1 {
        fill: #4285f4;
        fill-rule: evenodd;
      }
    </style>
  </defs>
  <path id="inf" class="cls-1" d="M1108,719a21,21,0,1,0,21,21A21.023,21.023,0,0,0,1108,719Zm0,39.415A18.416,18.416,0,1,1,1126.42,740,18.443,18.443,0,0,1,1108,758.415Zm0.33-28.95a2.162,2.162,0,1,1-2.16,2.161A2.165,2.165,0,0,1,1108.33,729.465Zm-0.56,7.848a1.3,1.3,0,0,0-1.3,1.292V749.59a1.3,1.3,0,0,0,2.59,0V738.605A1.293,1.293,0,0,0,1107.77,737.313Z" transform="translate(-1087 -719)"/>
</svg>
