<svg xmlns="http://www.w3.org/2000/svg" width="16" height="15" viewBox="0 0 16 15">
  <metadata><?xpacket begin="﻿" id="W5M0MpCehiHzreSzNTczkc9d"?>
<x:xmpmeta xmlns:x="adobe:ns:meta/" x:xmptk="Adobe XMP Core 5.6-c138 79.159824, 2016/09/14-01:09:01        ">
   <rdf:RDF xmlns:rdf="http://www.w3.org/1999/02/22-rdf-syntax-ns#">
      <rdf:Description rdf:about=""/>
   </rdf:RDF>
</x:xmpmeta>
                                                                                                    
                                                                                                    
                                                                                                    
                                                                                                    
                                                                                                    
                                                                                                    
                                                                                                    
                                                                                                    
                                                                                                    
                                                                                                    
                                                                                                    
                                                                                                    
                                                                                                    
                                                                                                    
                                                                                                    
                                                                                                    
                                                                                                    
                                                                                                    
                                                                                                    
                                                                                                    
                           
<?xpacket end="w"?></metadata>
<defs>
    <style>
      .cls-1 {
        fill: #4285f4;
        fill-rule: evenodd;
      }
    </style>
  </defs>
  <path id="star" class="cls-1" d="M167.647,2247.8a1.1,1.1,0,0,0,.29-1.15,1.137,1.137,0,0,0-.926-0.77l-3.871-.55a0.486,0.486,0,0,1-.381-0.27l-1.731-3.43a1.155,1.155,0,0,0-2.057,0l-1.731,3.43a0.486,0.486,0,0,1-.381.27l-3.871.55a1.135,1.135,0,0,0-.926.77,1.1,1.1,0,0,0,.29,1.15l2.8,2.67a0.488,0.488,0,0,1,.146.44l-0.661,3.77a1.1,1.1,0,0,0,.456,1.1,1.145,1.145,0,0,0,1.207.09l3.463-1.78a0.492,0.492,0,0,1,.471,0l3.463,1.78a1.129,1.129,0,0,0,.534.13,1.115,1.115,0,0,0,.673-0.22,1.1,1.1,0,0,0,.456-1.1l-0.661-3.77a0.488,0.488,0,0,1,.146-0.44Zm-3.578,3.22,0.661,3.77a0.5,0.5,0,0,1-.2.49,0.511,0.511,0,0,1-.533.03l-3.463-1.78a1.16,1.16,0,0,0-1.067,0L156,2255.31a0.513,0.513,0,0,1-.534-0.03,0.5,0.5,0,0,1-.2-0.49l0.661-3.77a1.114,1.114,0,0,0-.33-1l-2.8-2.67a0.487,0.487,0,0,1-.128-0.51,0.505,0.505,0,0,1,.408-0.34l3.871-.55a1.136,1.136,0,0,0,.864-0.61l1.731-3.44a0.517,0.517,0,0,1,.908,0l1.732,3.44a1.133,1.133,0,0,0,.863.61l3.871,0.55a0.507,0.507,0,0,1,.409.34,0.487,0.487,0,0,1-.128.51l-2.8,2.67A1.116,1.116,0,0,0,164.069,2251.02Z" transform="translate(-152 -2241)"/>
</svg>
