<svg xmlns="http://www.w3.org/2000/svg" width="40" height="44" viewBox="0 0 40 44">
  <metadata><?xpacket begin="﻿" id="W5M0MpCehiHzreSzNTczkc9d"?>
<x:xmpmeta xmlns:x="adobe:ns:meta/" x:xmptk="Adobe XMP Core 5.6-c138 79.159824, 2016/09/14-01:09:01        ">
   <rdf:RDF xmlns:rdf="http://www.w3.org/1999/02/22-rdf-syntax-ns#">
      <rdf:Description rdf:about=""/>
   </rdf:RDF>
</x:xmpmeta>
                                                                                                    
                                                                                                    
                                                                                                    
                                                                                                    
                                                                                                    
                                                                                                    
                                                                                                    
                                                                                                    
                                                                                                    
                                                                                                    
                                                                                                    
                                                                                                    
                                                                                                    
                                                                                                    
                                                                                                    
                                                                                                    
                                                                                                    
                                                                                                    
                                                                                                    
                                                                                                    
                           
<?xpacket end="w"?></metadata>
<defs>
    <style>
      .cls-1 {
        fill: #4285f4;
        fill-rule: evenodd;
      }
    </style>
  </defs>
  <path id="tire" class="cls-1" d="M95,738.853c0-.073,0-0.146,0-0.219,0-.1,0-0.2,0-0.3,0-.025,0-0.049,0-0.074a27.354,27.354,0,0,0-4.722-15.278c-2.487-3.451-5.773-5.676-9.411-5.982H80.714l-0.153.017C80.375,717.007,80.188,717,80,717H70c-3.715,0-7.114,1.991-9.733,5.278a0.8,0.8,0,0,0-.183.233C56.967,726.55,55,732.452,55,739c0,12.1,6.714,22,15,22H80c0.2,0,.406-0.008.608-0.02L80.786,761c6.857-.587,12.572-7.773,13.929-17.673,0.008-.077.016-0.155,0.023-0.232A31.976,31.976,0,0,0,95,739v-0.147h0ZM71.376,750.546a0.642,0.642,0,0,0-.093-0.237,31.416,31.416,0,0,1-2-11.309c0-10.827,4.979-19.708,11.324-20.512,7.217,0.485,12.962,9.526,12.962,20.512s-5.746,20.028-12.963,20.512C76.729,759.026,73.4,755.586,71.376,750.546ZM57.317,746.3a1.943,1.943,0,0,0,.468-0.263l0.928-1.467,1.5,1.54a0.679,0.679,0,0,0,1,0l1.643-1.686,1.714,1.76a0.679,0.679,0,0,0,1,0l1.714-1.76,1.174,1.078a30.627,30.627,0,0,0,.96,3.757l-1.276-.656a0.671,0.671,0,0,0-.929.22l-0.928,1.467-1.5-1.54a0.679,0.679,0,0,0-1,0l-1.643,1.687L60.5,748.753a0.679,0.679,0,0,0-1,0l-1.031,1.059A25.972,25.972,0,0,1,57.317,746.3Zm-0.886-6.942,1.783,1.032a0.744,0.744,0,0,0,.857-0.146l1.643-1.687,1.714,1.687a0.679,0.679,0,0,0,1,0l1.714-1.76,2.734,1.7c0.034,1.054.114,2.09,0.237,3.1l-0.542-.471a0.734,0.734,0,0,0-.928.074L65,744.573l-1.643-1.686a0.677,0.677,0,0,0-1,0l-1.643,1.686-1.643-1.686a0.8,0.8,0,0,0-.572-0.22,0.872,0.872,0,0,0-.571.293l-1,1.545A30.355,30.355,0,0,1,56.432,739.361ZM58.765,727.5l1.592,1.09a0.759,0.759,0,0,0,.786,0l1.714-1.174,1.786,1.247a0.755,0.755,0,0,0,.786,0l1.786-1.247,2.276,1.135a30.46,30.46,0,0,0-.944,3.533l-0.9-.928a0.679,0.679,0,0,0-1,0L65,732.84l-1.643-1.687a0.679,0.679,0,0,0-1,0l-1.643,1.687-1.643-1.687a0.678,0.678,0,0,0-1,0l-0.84.892A25.728,25.728,0,0,1,58.765,727.5Zm2.3-3.938,4.507-1.352,1.857,1.246a0.755,0.755,0,0,0,.786,0L70,722.207l1.992,0.993a23.486,23.486,0,0,0-2.019,4.016l-2.616-1.343a0.826,0.826,0,0,0-.714.074l-1.714,1.173-1.714-1.173a0.755,0.755,0,0,0-.786,0l-1.714,1.173-1.3-.947A19.545,19.545,0,0,1,61.065,723.559Zm4.292,13.388a0.744,0.744,0,0,0-.857.146l-1.643,1.687-1.643-1.687a0.679,0.679,0,0,0-1,0l-1.786,1.834-1.974-1.167a30.433,30.433,0,0,1,.3-3.216A0.751,0.751,0,0,0,57,734.38l1.571-1.687,1.643,1.687a0.679,0.679,0,0,0,1,0l1.643-1.687L64.5,734.38a0.679,0.679,0,0,0,1,0l1.643-1.687,0.929,0.954a0.77,0.77,0,0,0,.173.133,34.915,34.915,0,0,0-.383,4.709Zm11.179-18.48A14.2,14.2,0,0,0,72.8,722.03l-2.513-1.29a0.829,0.829,0,0,0-.714.073l-1.714,1.174-1.714-1.174a1.043,1.043,0,0,0-.643-0.146l-2.475.726A10.338,10.338,0,0,1,70,718.466h6.536ZM59.1,751.217l0.9-.924,1.643,1.687a0.679,0.679,0,0,0,1,0l1.643-1.687,1.643,1.687a0.639,0.639,0,0,0,.5.22A0.566,0.566,0,0,0,67,751.833l1.071-1.687,2.063,1.06a22.942,22.942,0,0,0,1.852,3.594l-1.344.92-1.714-1.173a0.755,0.755,0,0,0-.786,0l-1.714,1.173-1.714-1.173a0.755,0.755,0,0,0-.786,0l-1.765,1.208A18.82,18.82,0,0,1,59.1,751.217ZM70,759.533a10.268,10.268,0,0,1-6.805-2.773l1.091-.747,1.786,1.173a0.755,0.755,0,0,0,.786,0l1.714-1.173,1.643,1.247a0.755,0.755,0,0,0,.786,0l1.826-1.25a14.127,14.127,0,0,0,3.735,3.523H70Zm11.429-36.666c-3.7,0-6.8,4.248-8.017,10.34l-0.022.108c-0.033.167-.064,0.335-0.094,0.5-0.01.058-.02,0.116-0.03,0.174-0.02.12-.04,0.239-0.058,0.36-0.013.08-.025,0.16-0.037,0.241-0.02.135-.039,0.27-0.056,0.406q-0.016.123-.032,0.246-0.022.185-.043,0.369-0.016.15-.031,0.3c-0.011.112-.022,0.225-0.032,0.338-0.007.074-.013,0.148-0.019,0.222-0.013.163-.025,0.328-0.036,0.493,0,0.061-.007.123-0.011,0.185-0.008.146-.016,0.292-0.023,0.439,0,0.043,0,.085-0.006.128q-0.011.276-.017,0.555c0,0.047,0,.1,0,0.142,0,0.193-.006.387-0.006,0.582s0,0.389.006,0.582c0,0.047,0,.1,0,0.142q0.006,0.279.017,0.555c0,0.043,0,.085.006,0.128,0.007,0.147.014,0.293,0.023,0.439,0,0.062.007,0.123,0.011,0.185,0.011,0.165.023,0.33,0.036,0.493,0.006,0.074.013,0.148,0.019,0.222,0.01,0.113.021,0.226,0.032,0.338s0.02,0.2.031,0.3q0.02,0.184.043,0.369,0.015,0.123.032,0.246,0.027,0.2.056,0.4c0.012,0.081.024,0.162,0.037,0.242,0.019,0.121.038,0.24,0.058,0.359,0.01,0.059.019,0.117,0.03,0.175,0.03,0.17.061,0.338,0.094,0.5l0.021,0.107c1.218,6.093,4.319,10.341,8.017,10.341C86.214,755.133,90,748.02,90,739S86.214,722.867,81.429,722.867Zm-7.048,18.452c0-.045-0.008-0.09-0.011-0.135-0.005-.068-0.01-0.135-0.014-0.2-0.007-.1-0.013-0.19-0.018-0.286,0-.054-0.007-0.108-0.009-0.162-0.008-.149-0.015-0.3-0.021-0.448,0-.028,0-0.055,0-0.082q-0.007-.2-0.011-0.4c0-.043,0-0.085,0-0.128,0-.159,0-0.317,0-0.476,0-.139,0-0.277,0-0.415a26.033,26.033,0,0,1,1.177-7.512,19.574,19.574,0,0,1,0,15.854A25.133,25.133,0,0,1,74.381,741.319Zm7.048,12.348c-2.1,0-4.032-2-5.355-5.105,1.513-1.909,2.5-5.545,2.5-9.562s-0.985-7.653-2.5-9.562c1.323-3.1,3.254-5.105,5.355-5.105,3.857,0,7.143,6.747,7.143,14.667S85.286,753.667,81.429,753.667Z" transform="translate(-55 -717)"/>
</svg>
