<svg xmlns="http://www.w3.org/2000/svg" width="36" height="36" viewBox="0 0 36 36">
  <metadata><?xpacket begin="﻿" id="W5M0MpCehiHzreSzNTczkc9d"?>
<x:xmpmeta xmlns:x="adobe:ns:meta/" x:xmptk="Adobe XMP Core 5.6-c138 79.159824, 2016/09/14-01:09:01        ">
   <rdf:RDF xmlns:rdf="http://www.w3.org/1999/02/22-rdf-syntax-ns#">
      <rdf:Description rdf:about=""/>
   </rdf:RDF>
</x:xmpmeta>
                                                                                                    
                                                                                                    
                                                                                                    
                                                                                                    
                                                                                                    
                                                                                                    
                                                                                                    
                                                                                                    
                                                                                                    
                                                                                                    
                                                                                                    
                                                                                                    
                                                                                                    
                                                                                                    
                                                                                                    
                                                                                                    
                                                                                                    
                                                                                                    
                                                                                                    
                                                                                                    
                           
<?xpacket end="w"?></metadata>
<defs>
    <style>
      .cls-1 {
        fill: #4285f4;
        fill-rule: evenodd;
      }
    </style>
  </defs>
  <path id="wallet" class="cls-1" d="M328.236,736.546h-0.918v-6.2a2.564,2.564,0,0,0-2.528-2.6H324.1V723.6a2.49,2.49,0,0,0-2.374-2.6h-0.154l-26.2,6.737c-0.007,0-.022.007-0.029,0.007a2.585,2.585,0,0,0-2.344,2.6V754.4a2.562,2.562,0,0,0,2.527,2.6H324.79a2.578,2.578,0,0,0,2.6-2.6v-6.362h0.845a0.721,0.721,0,0,0,.764-0.764v-9.955A0.77,0.77,0,0,0,328.236,736.546Zm-6.363-14.091a1.129,1.129,0,0,1,.764,1.146v4.136H301.5Zm3.99,31.944a1.114,1.114,0,0,1-1.073,1.146H295.527a1.114,1.114,0,0,1-1.072-1.146V730.345a1.115,1.115,0,0,1,1.072-1.146h29.182a1.115,1.115,0,0,1,1.073,1.146v6.2H318.2a5.746,5.746,0,0,0,0,11.491h7.663V754.4Zm1.6-7.817H318.2a4.21,4.21,0,0,1,0-8.42h9.264v8.42Zm-10.109-4.136a0.763,0.763,0,0,0,.764.764h0.691a0.764,0.764,0,1,0,0-1.528h-0.684A0.727,0.727,0,0,0,317.355,742.446Z" transform="translate(-293 -721)"/>
</svg>
