<?xml version="1.0" standalone="no"?>
<!DOCTYPE svg PUBLIC "-//W3C//DTD SVG 20010904//EN"
 "http://www.w3.org/TR/2001/REC-SVG-20010904/DTD/svg10.dtd">
<svg version="1.0" xmlns="http://www.w3.org/2000/svg"
 width="391.000000pt" height="391.000000pt" viewBox="0 0 391.000000 391.000000"
 preserveAspectRatio="xMidYMid meet">
<metadata>
Created by potrace 1.11, written by Peter Selinger 2001-2013
</metadata>
<g transform="translate(0.000000,391.000000) scale(0.100000,-0.100000)"
fill="#000000" stroke="none">
<path d="M1744 2895 c-149 -38 -269 -100 -383 -198 l-55 -47 -313 0 c-299 0
-314 -1 -356 -21 -27 -13 -55 -38 -72 -63 -25 -38 -26 -46 -21 -116 3 -41 8
-90 12 -107 l7 -33 -197 0 c-212 0 -237 -5 -288 -54 -58 -55 -58 -73 2 -440
29 -182 57 -344 63 -361 24 -74 95 -135 157 -135 28 0 38 -6 51 -29 31 -54 80
-81 159 -88 56 -5 74 -10 88 -27 17 -21 62 -46 112 -62 14 -4 163 -8 332 -8
l306 -1 29 -31 c58 -65 65 -65 604 -62 534 3 500 -1 572 67 l28 26 312 1 c342
1 359 4 422 63 25 24 41 29 98 34 78 5 126 32 154 85 10 18 23 30 30 28 18 -7
85 14 112 36 53 41 74 90 95 223 3 17 24 143 46 280 49 298 50 323 16 375 -46
70 -84 80 -302 80 -105 0 -193 2 -196 5 -2 3 1 43 8 90 7 51 9 97 4 114 -13
46 -50 89 -95 111 -39 19 -62 20 -356 20 l-314 0 -45 40 c-99 89 -220 155
-357 196 -75 23 -110 27 -233 30 -125 2 -158 -1 -236 -21z m382 -34 c160 -32
314 -111 422 -215 l43 -41 328 -1 c318 0 328 -1 362 -22 52 -32 63 -59 56
-140 -4 -38 -9 -75 -11 -83 -3 -8 -7 -33 -10 -55 l-5 -42 223 0 c188 0 228 -3
255 -16 35 -19 71 -70 66 -95 -1 -9 -6 -45 -10 -81 -4 -36 -8 -67 -10 -70 -2
-3 -6 -25 -9 -50 -4 -25 -24 -147 -45 -271 -47 -283 -62 -309 -174 -313 -47
-2 -49 -4 -67 -43 -24 -54 -61 -73 -143 -73 -58 0 -66 -3 -88 -29 -55 -65 -60
-66 -428 -68 -183 -1 -334 -3 -335 -5 -57 -92 -28 -88 -584 -89 -528 -1 -512
-2 -565 61 l-26 31 -333 2 c-366 2 -361 1 -422 66 -26 28 -36 31 -86 31 -87 0
-116 14 -142 70 -22 44 -25 47 -58 45 -19 -2 -52 4 -72 12 -59 24 -77 62 -102
218 -3 17 -10 59 -16 95 -5 36 -12 76 -15 90 -19 102 -55 340 -55 363 0 38 26
80 61 101 25 15 62 17 255 18 l226 0 -6 42 c-3 22 -10 72 -16 111 -6 38 -8 82
-5 97 8 35 68 88 103 89 15 1 164 2 332 3 l306 1 67 57 c128 109 278 180 432
204 22 3 41 7 42 8 7 7 216 -4 259 -13z"/>
<path d="M1916 2704 c-9 -8 -16 -20 -16 -26 0 -6 -8 -4 -18 5 -10 10 -22 14
-25 10 -4 -3 -7 -1 -7 5 0 17 -32 15 -79 -4 -30 -12 -41 -23 -46 -45 -6 -27
-28 -43 -22 -16 1 6 -6 11 -15 11 -10 -1 -18 2 -18 7 0 11 -46 -6 -81 -32 -21
-15 -29 -29 -29 -51 0 -27 -2 -29 -17 -17 -14 12 -17 12 -21 0 -4 -11 -6 -11
-13 0 -6 11 -18 5 -49 -26 -38 -37 -41 -43 -36 -80 4 -24 3 -35 -2 -27 -14 21
-60 4 -79 -29 -10 -16 -24 -29 -33 -29 -11 0 -12 -2 -2 -8 7 -5 10 -16 7 -24
-4 -9 1 -28 10 -42 l17 -26 -28 10 c-48 17 -178 123 -195 159 -20 42 -45 61
-79 61 -40 0 -44 -12 -10 -26 35 -15 38 -32 11 -65 -16 -21 -22 -22 -45 -11
-15 7 -26 8 -26 2 0 -16 39 -50 57 -51 10 0 29 -1 43 -3 21 -1 90 -45 173
-110 19 -14 22 -26 8 -26 -5 0 -85 34 -177 75 -135 60 -175 82 -205 115 -43
47 -78 52 -114 15 -30 -30 -32 -64 -4 -99 17 -22 28 -26 73 -26 56 0 95 -11
186 -53 93 -42 132 -57 149 -56 10 0 11 2 4 6 -7 2 -13 9 -13 13 0 5 15 3 34
-5 25 -11 79 -14 214 -13 180 1 180 1 191 25 17 37 100 122 146 149 48 28 109
50 160 58 33 6 37 4 33 -12 -3 -11 0 -19 8 -19 7 0 12 5 11 10 -1 5 4 12 11
14 6 3 12 -2 12 -11 0 -9 4 -16 9 -16 5 0 7 9 4 19 -4 17 -1 19 29 15 46 -7
96 -23 143 -47 50 -25 149 -119 165 -156 l11 -29 119 0 c115 0 117 1 113 22
-3 21 -3 21 6 1 6 -16 20 -22 50 -23 46 -3 51 8 19 38 -20 19 -34 65 -16 54 4
-3 8 2 8 11 0 15 20 26 73 39 l27 6 -4 -52 c-3 -30 -5 -58 -6 -63 -6 -29 2
-35 49 -35 33 0 56 6 74 20 14 11 30 20 36 20 6 0 11 4 11 8 0 14 231 177 246
174 49 -10 78 70 32 87 -13 5 -33 5 -45 0 -12 -5 -62 -15 -110 -23 -84 -14
-121 -19 -223 -33 -24 -3 -60 -15 -80 -27 -19 -11 -52 -30 -73 -40 l-38 -20
-15 22 c-9 13 -26 22 -40 22 -21 0 -24 4 -19 20 4 13 2 20 -7 20 -10 0 -9 3 2
10 12 8 7 18 -32 55 -40 39 -51 44 -67 35 -27 -14 -30 -13 -23 12 4 17 2 20
-13 14 -15 -5 -16 -4 -5 9 16 20 3 36 -51 60 -39 18 -43 18 -70 2 l-29 -16 6
26 c5 20 4 24 -6 18 -10 -6 -12 -4 -7 8 4 12 -3 19 -27 27 -63 20 -95 20 -106
-1 -12 -21 -29 -26 -26 -6 0 6 -3 13 -8 14 -5 0 -13 8 -18 17 -12 22 -101 22
-122 0z m-51 -34 c3 -5 1 -10 -4 -10 -6 0 -11 5 -11 10 0 6 2 10 4 10 3 0 8
-4 11 -10z m180 0 c3 -5 1 -10 -4 -10 -6 0 -11 5 -11 10 0 6 2 10 4 10 3 0 8
-4 11 -10z m-158 -46 c-3 -3 -12 -4 -19 -1 -8 3 -5 6 6 6 11 1 17 -2 13 -5z
m170 0 c-3 -3 -12 -4 -19 -1 -8 3 -5 6 6 6 11 1 17 -2 13 -5z m-230 -10 c-3
-3 -12 -4 -19 -1 -8 3 -5 6 6 6 11 1 17 -2 13 -5z m280 0 c-3 -3 -12 -4 -19
-1 -8 3 -5 6 6 6 11 1 17 -2 13 -5z m-320 -10 c-3 -3 -12 -4 -19 -1 -8 3 -5 6
6 6 11 1 17 -2 13 -5z m293 -13 c0 -5 -9 -7 -20 -4 -11 3 -20 7 -20 9 0 2 9 4
20 4 11 0 20 -4 20 -9z m-263 -7 c-3 -3 -12 -4 -19 -1 -8 3 -5 6 6 6 11 1 17
-2 13 -5z m-110 -10 c-3 -3 -12 -4 -19 -1 -8 3 -5 6 6 6 11 1 17 -2 13 -5z
m-42 -14 c-3 -5 -12 -10 -18 -10 -7 0 -6 4 3 10 19 12 23 12 15 0z m641 -31
c4 -8 1 -8 -14 0 -12 6 -24 16 -28 22 -4 8 -1 8 14 0 12 -6 24 -16 28 -22z
m-626 6 c-7 -9 -15 -13 -19 -10 -3 3 1 10 9 15 21 14 24 12 10 -5z m-100 -30
c-7 -9 -15 -13 -19 -10 -3 3 1 10 9 15 21 14 24 12 10 -5z m740 -17 c0 -6 -6
-5 -15 2 -8 7 -15 14 -15 16 0 2 7 1 15 -2 8 -4 15 -11 15 -16z m71 -25 c13
-16 12 -17 -3 -4 -10 7 -18 15 -18 17 0 8 8 3 21 -13z m-17 -19 c7 -19 2 -18
-19 6 -16 17 -16 20 -3 15 9 -4 19 -13 22 -21z m-814 12 c0 -2 -7 -9 -15 -16
-13 -11 -14 -10 -9 4 5 14 24 23 24 12z m1610 -17 c0 -18 -2 -19 -15 -9 -8 7
-15 16 -15 21 0 5 7 9 15 9 9 0 15 -9 15 -21z m-260 -18 c0 -5 -25 -17 -55
-25 -30 -9 -61 -19 -70 -22 -10 -4 -15 0 -15 14 0 17 10 21 68 29 37 6 68 11
70 12 1 0 2 -3 2 -8z m160 5 c0 -8 -159 -126 -169 -126 -5 0 -11 -4 -13 -8 -1
-4 -25 -25 -53 -46 l-50 -38 -6 54 c-3 29 -4 58 -2 65 3 6 43 23 91 38 48 14
112 35 142 45 30 10 56 19 58 19 1 1 2 -1 2 -3z m-619 -23 c13 -16 12 -17 -3
-4 -10 7 -18 15 -18 17 0 8 8 3 21 -13z m-1609 -29 c16 -34 0 -59 -38 -59 -22
0 -31 6 -38 27 -19 54 52 84 76 32z m1898 -4 c0 -4 -27 -17 -61 -28 -67 -22
-66 -14 2 22 42 23 59 25 59 6z m-256 -6 c5 -14 4 -15 -9 -4 -17 14 -19 20 -6
20 5 0 12 -7 15 -16z m-1329 -16 c-2 -7 20 -31 50 -53 58 -42 78 -72 23 -34
-68 48 -107 82 -102 90 8 14 34 10 29 -3z m269 -13 c-4 -8 -11 -15 -16 -15 -6
0 -5 6 2 15 7 8 14 15 16 15 2 0 1 -7 -2 -15z m-492 -24 c-9 -5 18 -22 83 -52
52 -24 91 -45 86 -47 -5 -2 -44 13 -87 32 -42 20 -82 36 -89 36 -14 0 -27 25
-18 34 4 3 13 6 22 6 12 0 13 -2 3 -9z m452 -46 c-4 -8 -8 -15 -10 -15 -2 0
-4 7 -4 15 0 8 4 15 10 15 5 0 7 -7 4 -15z m1126 5 c0 -5 -2 -10 -4 -10 -3 0
-8 5 -11 10 -3 6 -1 10 4 10 6 0 11 -4 11 -10z"/>
<path d="M2860 2566 c0 -9 30 -14 35 -6 4 6 -3 10 -14 10 -12 0 -21 -2 -21 -4z"/>
<path d="M2811 2494 c0 -11 3 -14 6 -6 3 7 2 16 -1 19 -3 4 -6 -2 -5 -13z"/>
<path d="M1314 2442 c4 -3 14 -7 22 -8 9 -1 13 0 10 4 -4 3 -14 7 -22 8 -9 1
-13 0 -10 -4z"/>
<path d="M1870 2386 c0 -2 9 -6 20 -9 11 -3 20 -1 20 4 0 5 -9 9 -20 9 -11 0
-20 -2 -20 -4z"/>
<path d="M1858 2368 c5 -5 16 -8 23 -6 8 3 3 7 -10 11 -17 4 -21 3 -13 -5z"/>
<path d="M2048 2373 c7 -3 16 -2 19 1 4 3 -2 6 -13 5 -11 0 -14 -3 -6 -6z"/>
<path d="M1981 2346 c12 -13 20 -15 40 -6 20 9 20 10 3 7 -12 -3 -30 0 -40 6
-17 9 -18 8 -3 -7z"/>
<path d="M1910 2340 c0 -5 5 -10 10 -10 6 0 10 5 10 10 0 6 -4 10 -10 10 -5 0
-10 -4 -10 -10z"/>
<path d="M1837 2333 c-13 -12 -7 -25 6 -14 8 6 18 7 22 3 5 -4 5 -1 1 6 -8 13
-19 16 -29 5z"/>
<path d="M2054 2328 c-4 -7 -4 -10 1 -6 4 4 14 3 21 -3 9 -7 14 -6 20 3 4 7 4
10 -1 6 -4 -4 -14 -3 -21 3 -9 7 -14 6 -20 -3z"/>
<path d="M2163 2322 c-9 -5 -6 -12 10 -21 19 -13 21 -12 10 1 -7 8 -10 18 -6
21 9 9 1 8 -14 -1z"/>
<path d="M1705 2310 c-4 -6 1 -7 12 -3 16 6 17 5 3 -13 -14 -18 -14 -18 2 -5
10 7 15 17 12 22 -7 12 -21 11 -29 -1z"/>
<path d="M1905 2310 c-4 -6 -11 -7 -17 -4 -7 4 -8 2 -4 -4 7 -12 36 -5 36 9 0
12 -7 11 -15 -1z"/>
<path d="M2207 2298 c4 -7 8 -17 8 -22 0 -5 8 -10 19 -12 16 -2 16 0 -5 22
-24 26 -35 32 -22 12z"/>
<path d="M1766 2285 c-11 -8 -16 -15 -10 -15 5 0 18 7 28 15 11 8 16 15 10 15
-5 0 -18 -7 -28 -15z"/>
<path d="M2118 2293 c7 -3 16 -2 19 1 4 3 -2 6 -13 5 -11 0 -14 -3 -6 -6z"/>
<path d="M1675 2272 c3 -3 -1 -12 -7 -21 -8 -10 -4 -9 10 3 26 23 26 23 7 23
-8 0 -13 -3 -10 -5z"/>
<path d="M1699 2258 c-6 -21 -5 -38 1 -38 5 0 8 9 7 20 -1 17 -5 26 -8 18z"/>
<path d="M1755 2251 c-3 -5 -2 -12 3 -15 5 -3 9 1 9 9 0 17 -3 19 -12 6z"/>
<path d="M2135 2242 c3 -3 -1 -12 -7 -21 -8 -10 -4 -9 10 3 26 23 26 23 7 23
-8 0 -13 -3 -10 -5z"/>
<path d="M2213 2237 c0 -8 6 -14 14 -14 9 0 10 4 2 14 -6 7 -12 13 -14 13 -1
0 -2 -6 -2 -13z"/>
<path d="M2268 2238 c10 -13 10 -17 0 -20 -8 -3 -9 -6 -1 -11 18 -12 23 21 5
35 -15 11 -16 11 -4 -4z"/>
<path d="M2167 2234 c-3 -3 -3 -12 0 -20 3 -8 0 -14 -6 -14 -6 0 -11 -5 -11
-12 0 -6 3 -8 7 -5 3 4 13 1 22 -5 13 -10 14 -10 4 2 -10 11 -9 16 5 27 13 10
14 13 2 11 -8 -2 -14 3 -12 10 2 13 -1 15 -11 6z"/>
<path d="M2294 2190 c0 -13 4 -16 10 -10 7 7 7 13 0 20 -6 6 -10 3 -10 -10z"/>
<path d="M1720 2195 c0 -2 6 -8 13 -14 10 -8 14 -7 14 2 0 8 -6 14 -14 14 -7
0 -13 -1 -13 -2z"/>
<path d="M363 2060 c-17 -10 -36 -27 -42 -38 -5 -10 -10 -87 -10 -171 0 -151
0 -152 27 -182 36 -40 100 -51 130 -21 16 16 22 18 26 6 3 -8 19 -14 41 -14
38 0 37 -5 37 120 0 17 -1 48 -1 70 l-1 40 -65 0 -65 0 0 -30 c0 -16 5 -30 10
-30 14 0 13 -97 -1 -106 -22 -13 -27 20 -25 160 1 118 3 141 16 141 16 0 17
-3 19 -60 l1 -35 55 0 55 0 0 40 c0 82 -49 130 -132 130 -25 0 -56 -8 -75 -20z"/>
<path d="M1915 2071 c-37 -16 -57 -48 -60 -98 -5 -66 15 -102 80 -143 31 -19
58 -45 61 -56 9 -34 1 -69 -16 -69 -11 0 -16 13 -18 48 l-3 48 -52 -3 -52 -3
3 -50 c2 -38 9 -57 29 -77 48 -50 171 -47 208 5 18 26 20 122 2 157 -7 13 -40
44 -75 68 -52 36 -62 48 -62 72 0 26 15 48 25 38 4 -4 12 -40 14 -61 1 -4 25
-7 54 -5 l52 3 -4 35 c-4 47 -16 67 -49 83 -31 16 -108 20 -137 8z"/>
<path d="M767 2063 c-3 -5 -8 -30 -11 -58 -6 -58 -25 -198 -31 -235 -3 -14 -7
-49 -11 -77 l-6 -53 56 0 56 0 1 33 c1 17 1 35 0 40 0 4 13 7 30 7 25 0 30 -4
29 -22 -5 -56 -3 -58 55 -58 l56 0 -6 43 c-6 43 -12 77 -20 125 -11 66 -37
238 -38 250 0 13 -152 18 -160 5z m88 -134 c2 -13 6 -50 10 -81 6 -55 5 -58
-16 -58 -21 0 -22 2 -15 68 4 37 8 75 7 86 0 25 9 14 14 -15z"/>
<path d="M1123 1855 l-1 -215 50 0 c48 0 49 1 48 28 -1 15 -1 56 0 92 l2 65
25 -92 26 -93 51 0 51 0 0 213 0 212 -47 3 -48 3 0 -93 -1 -93 -31 93 -31 92
-47 0 -46 0 -1 -215z"/>
<path d="M1522 1855 l0 -215 99 0 99 0 0 44 0 45 -42 3 c-43 3 -43 3 -43 43 0
38 2 40 35 45 32 5 35 8 38 42 2 36 2 37 -35 40 -36 3 -37 5 -38 41 -1 36 -1
37 37 37 l38 0 0 45 0 45 -94 0 -93 0 -1 -215z"/>
<path d="M2267 2063 c-2 -5 -5 -101 -5 -215 l0 -208 57 0 58 0 -2 78 c-1 88 2
102 21 102 11 0 14 -20 14 -90 l0 -90 58 0 57 0 -2 207 c-1 115 -2 211 -2 216
-1 4 -26 7 -56 7 l-55 0 0 -80 c0 -70 -2 -80 -18 -80 -15 0 -17 10 -17 80 l1
80 -52 0 c-29 0 -55 -3 -57 -7z"/>
<path d="M2676 2061 c-3 -4 -5 -101 -5 -215 l0 -207 57 3 57 3 1 213 1 212
-53 0 c-29 0 -55 -4 -58 -9z"/>
<path d="M2942 1855 l-1 -215 49 0 49 0 -1 80 c0 44 1 82 3 85 3 2 16 -34 29
-81 l25 -85 50 3 50 3 0 210 0 210 -47 3 -47 3 -3 -88 -3 -88 -29 88 -28 87
-48 0 -48 0 0 -215z"/>
<path d="M3386 2062 c-2 -4 -8 -37 -11 -72 -4 -36 -8 -67 -10 -70 -2 -3 -6
-34 -10 -70 -4 -36 -8 -72 -10 -80 -2 -9 -6 -41 -10 -73 l-7 -57 56 0 c54 0
56 1 57 28 1 15 1 33 0 40 -1 7 10 12 29 12 16 0 29 -3 29 -7 -1 -5 -1 -23 0
-40 l1 -33 56 0 57 0 -7 38 c-3 20 -13 84 -22 142 -9 58 -17 112 -19 120 -2 8
-6 41 -10 73 l-8 57 -78 0 c-43 0 -80 -4 -83 -8z m89 -130 c1 -9 5 -45 9 -79
l8 -63 -27 0 c-14 0 -24 3 -22 8 5 6 19 119 20 150 0 17 10 5 12 -16z"/>
<path d="M1214 1543 c5 -18 18 -107 19 -130 0 -7 11 -13 23 -13 19 0 24 8 32
43 l9 42 7 -42 c7 -37 11 -43 32 -43 16 0 24 6 25 18 0 9 2 26 4 37 17 95 17
105 -4 105 -15 0 -21 -9 -26 -37 -11 -66 -13 -69 -15 -28 -1 22 -2 44 -1 48 2
10 -28 21 -36 14 -3 -4 -8 -26 -10 -49 -6 -54 -13 -62 -13 -15 0 49 -9 67 -32
67 -14 0 -18 -5 -14 -17z"/>
<path d="M1409 1543 c-2 -25 -2 -73 0 -110 1 -26 5 -33 20 -33 15 0 21 8 24
38 l4 37 1 -38 c2 -33 5 -38 23 -35 20 3 22 9 23 81 1 73 0 77 -21 77 -17 0
-23 -7 -26 -32 l-4 -33 -1 33 c-2 25 -6 32 -22 32 -12 0 -20 -7 -21 -17z"/>
<path d="M1539 1530 c0 -16 -1 -51 -1 -77 l-1 -48 37 -3 c27 -2 36 1 36 12 0
9 -7 16 -15 16 -21 0 -19 36 3 45 16 6 16 7 0 19 -22 16 -23 36 -3 36 8 0 15
7 15 15 0 10 -11 15 -35 15 -32 0 -35 -3 -36 -30z"/>
<path d="M1640 1480 l0 -80 34 0 c21 0 36 6 40 15 4 10 -1 15 -14 15 -13 0
-20 7 -20 20 0 11 7 20 15 20 8 0 15 7 15 15 0 8 -7 15 -15 15 -8 0 -15 7 -15
15 0 8 7 15 15 15 8 0 15 7 15 15 0 10 -11 15 -35 15 l-35 0 0 -80z"/>
<path d="M1742 1481 l-1 -81 34 0 c24 0 35 5 35 15 0 8 -6 15 -13 15 -9 0 -13
18 -12 63 0 56 -2 62 -21 65 -20 3 -21 -2 -22 -77z"/>
<path d="M1845 1550 c-16 -26 -11 -50 16 -76 16 -15 29 -32 29 -38 0 -6 -5 -5
-12 2 -7 7 -20 12 -29 12 -27 0 -11 -39 19 -47 61 -15 81 42 31 93 -18 19 -28
34 -21 34 7 0 12 -4 12 -10 0 -13 27 -13 35 -1 3 5 -2 17 -11 25 -17 18 -59
21 -69 6z"/>
<path d="M2200 1545 c0 -8 6 -15 13 -15 9 0 13 -15 12 -52 -2 -65 2 -78 25
-78 15 0 17 9 16 61 -1 42 3 63 11 66 7 3 13 11 13 19 0 10 -13 14 -45 14 -33
0 -45 -4 -45 -15z"/>
<path d="M2320 1480 c0 -73 2 -80 20 -80 18 0 20 7 20 80 0 73 -2 80 -20 80
-18 0 -20 -7 -20 -80z"/>
<path d="M2395 1483 c1 -72 2 -78 22 -81 18 -3 22 3 26 35 l4 38 1 -37 c2 -31
6 -38 22 -38 17 0 19 7 18 68 0 37 -5 73 -10 80 -6 6 -27 12 -47 12 l-36 0 0
-77z m52 25 c-3 -8 -6 -5 -6 6 -1 11 2 17 5 13 3 -3 4 -12 1 -19z"/>
<path d="M2528 1553 c-2 -5 -4 -39 -3 -78 l0 -70 38 -3 c28 -2 37 0 37 12 0 9
-6 16 -14 16 -23 0 -28 17 -11 33 17 18 20 37 5 37 -16 0 -12 27 6 34 8 3 12
10 9 16 -7 12 -62 14 -67 3z"/>
<path d="M2642 1552 c-25 -16 -21 -49 9 -78 29 -28 41 -57 14 -34 -23 19 -44
9 -34 -17 6 -17 16 -23 37 -23 55 0 68 40 27 88 -14 17 -25 34 -25 38 0 5 4 3
9 -5 5 -8 16 -11 25 -8 14 5 15 11 6 27 -11 20 -45 26 -68 12z"/>
<path d="M2031 1521 c-9 -6 -12 -18 -8 -32 3 -13 2 -29 -4 -35 -7 -9 -7 -19 0
-32 8 -16 21 -20 61 -20 38 0 48 3 41 12 -7 9 -7 16 1 24 12 12 11 13 -14 16
-8 1 -12 13 -10 30 4 40 -31 59 -67 37z"/>
<path d="M314 1473 c10 -11 556 -11 556 -1 0 4 -127 8 -282 8 -155 0 -278 -3
-274 -7z"/>
<path d="M3050 1472 c0 -5 122 -9 270 -8 149 0 270 3 270 8 0 4 -121 8 -270 8
-148 0 -270 -4 -270 -8z"/>
<path d="M520 1398 c0 -5 79 -8 177 -8 97 0 173 3 169 7 -10 10 -346 10 -346
1z"/>
<path d="M3050 1398 c0 -4 79 -8 177 -8 97 0 173 3 169 7 -10 10 -346 11 -346
1z"/>
<path d="M763 1332 c-18 -2 -33 -6 -33 -10 0 -4 175 -7 390 -6 l390 1 0 -66 0
-66 439 0 c242 0 442 3 446 6 3 4 7 33 8 65 l2 59 387 0 c214 0 387 4 385 9
-2 7 -2337 15 -2414 8z"/>
</g>
</svg>
